<svg width="128" height="19" viewBox="0 0 128 19" fill="none" xmlns="http://www.w3.org/2000/svg">
<path d="M19.1308 6.91243C19.0732 6.74262 18.967 6.59341 18.8256 6.48322C18.6841 6.37303 18.5134 6.30669 18.3347 6.29238L13.1055 5.87688L10.8427 0.867861C10.7706 0.706531 10.6534 0.569505 10.5052 0.47332C10.357 0.377135 10.1841 0.325903 10.0074 0.325806C9.83069 0.325709 9.65774 0.376751 9.50941 0.472773C9.36109 0.568796 9.24372 0.705693 9.17148 0.866944L6.90866 5.87688L1.67951 6.29238C1.50382 6.3063 1.33586 6.37054 1.19572 6.47742C1.05559 6.58429 0.949205 6.72928 0.88931 6.89503C0.829415 7.06079 0.818541 7.24028 0.857988 7.41205C0.897436 7.58382 0.985535 7.74059 1.11175 7.86361L4.97605 11.6307L3.60937 17.5487C3.56788 17.7278 3.58118 17.9153 3.64755 18.0868C3.71392 18.2583 3.8303 18.4058 3.98159 18.5103C4.13288 18.6149 4.31208 18.6715 4.49596 18.6729C4.67983 18.6743 4.85988 18.6204 5.01274 18.5182L10.0071 15.1886L15.0014 18.5182C15.1577 18.6219 15.3419 18.6753 15.5294 18.6712C15.7169 18.6671 15.8986 18.6057 16.0502 18.4952C16.2017 18.3847 16.3158 18.2305 16.3771 18.0532C16.4383 17.876 16.4438 17.6842 16.3929 17.5037L14.7152 11.6334L18.8758 7.88929C19.1482 7.64347 19.2482 7.26007 19.1308 6.91243V6.91243Z" fill="#E77C40"/>
<path d="M46.1457 6.91243C46.0881 6.74262 45.9819 6.59341 45.8404 6.48322C45.699 6.37303 45.5283 6.30669 45.3495 6.29238L40.1204 5.87688L37.8576 0.867861C37.7855 0.706531 37.6683 0.569505 37.5201 0.47332C37.3719 0.377135 37.199 0.325903 37.0223 0.325806C36.8456 0.325709 36.6726 0.376751 36.5243 0.472773C36.376 0.568796 36.2586 0.705693 36.1864 0.866944L33.9236 5.87688L28.6944 6.29238C28.5187 6.3063 28.3508 6.37054 28.2106 6.47742C28.0705 6.58429 27.9641 6.72928 27.9042 6.89503C27.8443 7.06079 27.8334 7.24028 27.8729 7.41205C27.9123 7.58382 28.0004 7.74059 28.1266 7.86361L31.9909 11.6307L30.6243 17.5487C30.5828 17.7278 30.5961 17.9153 30.6624 18.0868C30.7288 18.2583 30.8452 18.4058 30.9965 18.5103C31.1478 18.6149 31.327 18.6715 31.5109 18.6729C31.6947 18.6743 31.8748 18.6204 32.0276 18.5182L37.022 15.1886L42.0163 18.5182C42.1726 18.6219 42.3568 18.6753 42.5443 18.6712C42.7318 18.6671 42.9135 18.6057 43.0651 18.4952C43.2166 18.3847 43.3307 18.2305 43.392 18.0532C43.4532 17.876 43.4587 17.6842 43.4078 17.5037L41.7301 11.6334L45.8907 7.88929C46.1631 7.64347 46.2631 7.26007 46.1457 6.91243V6.91243Z" fill="#E77C40"/>
<path d="M73.1567 6.91243C73.099 6.74262 72.9929 6.59341 72.8514 6.48322C72.7099 6.37303 72.5393 6.30669 72.3605 6.29238L67.1314 5.87688L64.8686 0.867861C64.7965 0.706531 64.6793 0.569505 64.5311 0.47332C64.3828 0.377135 64.21 0.325903 64.0333 0.325806C63.8566 0.325709 63.6836 0.376751 63.5353 0.472773C63.387 0.568796 63.2696 0.705693 63.1974 0.866944L60.9345 5.87688L55.7054 6.29238C55.5297 6.3063 55.3617 6.37054 55.2216 6.47742C55.0815 6.58429 54.9751 6.72928 54.9152 6.89503C54.8553 7.06079 54.8444 7.24028 54.8839 7.41205C54.9233 7.58382 55.0114 7.74059 55.1376 7.86361L59.0019 11.6307L57.6353 17.5487C57.5938 17.7278 57.6071 17.9153 57.6734 18.0868C57.7398 18.2583 57.8562 18.4058 58.0075 18.5103C58.1588 18.6149 58.338 18.6715 58.5218 18.6729C58.7057 18.6743 58.8858 18.6204 59.0386 18.5182L64.033 15.1886L69.0273 18.5182C69.1835 18.6219 69.3678 18.6753 69.5553 18.6712C69.7428 18.6671 69.9245 18.6057 70.0761 18.4952C70.2276 18.3847 70.3417 18.2305 70.4029 18.0532C70.4642 17.876 70.4697 17.6842 70.4187 17.5037L68.7411 11.6334L72.9017 7.88929C73.1741 7.64347 73.2741 7.26007 73.1567 6.91243V6.91243Z" fill="#E77C40"/>
<path d="M100.171 6.91243C100.113 6.74262 100.007 6.59341 99.8655 6.48322C99.724 6.37303 99.5533 6.30669 99.3746 6.29238L94.1454 5.87688L91.8826 0.867861C91.8105 0.706531 91.6933 0.569505 91.5451 0.47332C91.3969 0.377135 91.224 0.325903 91.0473 0.325806C90.8706 0.325709 90.6977 0.376751 90.5493 0.472773C90.401 0.568796 90.2836 0.705693 90.2114 0.866944L87.9486 5.87688L82.7194 6.29238C82.5437 6.3063 82.3758 6.37054 82.2356 6.47742C82.0955 6.58429 81.9891 6.72928 81.9292 6.89503C81.8693 7.06079 81.8585 7.24028 81.8979 7.41205C81.9374 7.58382 82.0255 7.74059 82.1517 7.86361L86.016 11.6307L84.6493 17.5487C84.6078 17.7278 84.6211 17.9153 84.6875 18.0868C84.7538 18.2583 84.8702 18.4058 85.0215 18.5103C85.1728 18.6149 85.352 18.6715 85.5359 18.6729C85.7197 18.6743 85.8998 18.6204 86.0527 18.5182L91.047 15.1886L96.0413 18.5182C96.1976 18.6219 96.3818 18.6753 96.5693 18.6712C96.7568 18.6671 96.9386 18.6057 97.0901 18.4952C97.2416 18.3847 97.3557 18.2305 97.417 18.0532C97.4782 17.876 97.4838 17.6842 97.4328 17.5037L95.7552 11.6334L99.9157 7.88929C100.188 7.64347 100.288 7.26007 100.171 6.91243V6.91243Z" fill="#E77C40"/>
<path d="M127.296 6.58663C127.238 6.41682 127.132 6.26761 126.991 6.15742C126.849 6.04723 126.679 5.98089 126.5 5.96658L121.271 5.55107L119.008 0.542056C118.936 0.380725 118.819 0.243699 118.67 0.147514C118.522 0.0513295 118.349 9.71158e-05 118.173 1.37932e-07C117.996 -9.684e-05 117.823 0.0509458 117.675 0.146968C117.526 0.24299 117.409 0.379887 117.337 0.541138L115.074 5.55107L109.845 5.96658C109.669 5.9805 109.501 6.04474 109.361 6.15161C109.221 6.25849 109.114 6.40348 109.055 6.56923C108.995 6.73498 108.984 6.91448 109.023 7.08625C109.063 7.25802 109.151 7.41479 109.277 7.5378L113.141 11.3049L111.775 17.2229C111.733 17.402 111.746 17.5895 111.813 17.761C111.879 17.9324 111.996 18.08 112.147 18.1845C112.298 18.2891 112.477 18.3457 112.661 18.3471C112.845 18.3485 113.025 18.2946 113.178 18.1924L118.172 14.8628L123.167 18.1924C123.323 18.2961 123.507 18.3495 123.695 18.3454C123.882 18.3413 124.064 18.2799 124.215 18.1694C124.367 18.0589 124.481 17.9047 124.542 17.7274C124.604 17.5502 124.609 17.3584 124.558 17.1779L122.881 11.3076L127.041 7.56348C127.314 7.31766 127.413 6.93426 127.296 6.58663V6.58663Z" fill="#E77C40"/>
<path d="M113.032 11.6308L111.665 17.5488C111.623 17.728 111.635 17.9158 111.702 18.0876C111.768 18.2595 111.884 18.4074 112.035 18.5122C112.187 18.6169 112.366 18.6735 112.551 18.6746C112.735 18.6756 112.915 18.6212 113.068 18.5183L118.062 15.1887L123.056 18.5183C123.212 18.622 123.397 18.6754 123.584 18.6713C123.772 18.6672 123.953 18.6058 124.105 18.4953C124.257 18.3848 124.371 18.2306 124.432 18.0533C124.493 17.8761 124.499 17.6843 124.448 17.5038L122.77 11.6335L126.931 7.88938C127.064 7.76939 127.159 7.61298 127.204 7.43949C127.25 7.26599 127.243 7.08302 127.186 6.9132C127.128 6.74339 127.022 6.59417 126.88 6.48402C126.739 6.37386 126.568 6.30758 126.389 6.29339L121.16 5.87697L118.897 0.867952C118.825 0.706661 118.708 0.569699 118.56 0.473596C118.412 0.377493 118.239 0.326355 118.062 0.326355C117.885 0.326355 117.712 0.377493 117.564 0.473596C117.416 0.569699 117.298 0.706661 117.226 0.867952L114.963 5.87697L109.734 6.29247C109.559 6.30639 109.391 6.37063 109.251 6.47751C109.11 6.58439 109.004 6.72937 108.944 6.89512C108.884 7.06088 108.873 7.24037 108.913 7.41215C108.952 7.58392 109.04 7.74068 109.167 7.8637L113.032 11.6308V11.6308ZM115.649 7.66282C115.812 7.64992 115.97 7.59322 116.104 7.49865C116.238 7.40408 116.344 7.27513 116.412 7.12532L118.062 3.47381L119.712 7.12532C119.779 7.27513 119.886 7.40408 120.02 7.49865C120.154 7.59322 120.311 7.64992 120.475 7.66282L124.118 7.95175L121.118 10.6521C120.858 10.8869 120.754 11.2483 120.849 11.5858L121.999 15.6079L118.572 13.3231C118.421 13.2221 118.244 13.1682 118.063 13.1682C117.882 13.1682 117.705 13.2221 117.555 13.3231L113.974 15.7106L114.937 11.5409C114.972 11.3875 114.967 11.2277 114.923 11.0767C114.879 10.9257 114.796 10.7886 114.684 10.6787L111.897 7.96184L115.649 7.66282V7.66282Z" fill="#E77C40"/>
</svg>
