<svg width="20" height="22" viewBox="0 0 20 22" fill="none" xmlns="http://www.w3.org/2000/svg">
<path d="M17.8571 0.5H2.14286C1.57454 0.5 1.02949 0.737053 0.627628 1.15901C0.225765 1.58097 0 2.15326 0 2.75L0 19.25C0 19.8467 0.225765 20.419 0.627628 20.841C1.02949 21.2629 1.57454 21.5 2.14286 21.5H8.27009V14.3605H5.45759V11H8.27009V8.43875C8.27009 5.52547 9.92188 3.91625 12.4518 3.91625C13.6634 3.91625 14.9304 4.14313 14.9304 4.14313V7.0025H13.5344C12.1589 7.0025 11.7299 7.89875 11.7299 8.81797V11H14.8004L14.3094 14.3605H11.7299V21.5H17.8571C18.4255 21.5 18.9705 21.2629 19.3724 20.841C19.7742 20.419 20 19.8467 20 19.25V2.75C20 2.15326 19.7742 1.58097 19.3724 1.15901C18.9705 0.737053 18.4255 0.5 17.8571 0.5Z" fill="white"/>
</svg>
