<svg width="20" height="22" viewBox="0 0 20 22" fill="none" xmlns="http://www.w3.org/2000/svg">
<path d="M10 8.49969C9.52907 8.49987 9.06877 8.64667 8.67729 8.92152C8.28582 9.19637 7.98074 9.58693 7.80065 10.0438C7.62055 10.5007 7.57352 11.0034 7.66551 11.4884C7.75749 11.9733 7.98435 12.4187 8.31741 12.7683C8.65047 13.1179 9.07477 13.3559 9.53666 13.4523C9.99856 13.5487 10.4773 13.4992 10.9124 13.3099C11.3474 13.1206 11.7193 12.8002 11.9809 12.389C12.2425 11.9778 12.3821 11.4945 12.3821 11C12.3817 10.3369 12.1305 9.70105 11.6839 9.23223C11.2372 8.76341 10.6316 8.49994 10 8.49969ZM15.5674 6.57781C15.4462 6.25524 15.2631 5.96226 15.0296 5.71705C14.7961 5.47184 14.517 5.27963 14.2098 5.15234C13.2723 4.76375 11.0402 4.85094 10 4.85094C8.95982 4.85094 6.72991 4.76047 5.78973 5.15234C5.48252 5.27963 5.20349 5.47184 4.96996 5.71705C4.73642 5.96226 4.55337 6.25524 4.43214 6.57781C4.0625 7.56219 4.14509 9.90828 4.14509 10.9995C4.14509 12.0908 4.0625 14.4341 4.43393 15.4217C4.55515 15.7443 4.73821 16.0373 4.97174 16.2825C5.20528 16.5277 5.4843 16.7199 5.79152 16.8472C6.72902 17.2358 8.96116 17.1486 10.0018 17.1486C11.0424 17.1486 13.2714 17.2391 14.2116 16.8472C14.5188 16.7199 14.7978 16.5277 15.0314 16.2825C15.2649 16.0373 15.448 15.7443 15.5692 15.4217C15.942 14.4373 15.8562 12.0913 15.8562 11C15.8562 9.90875 15.942 7.56594 15.5692 6.57828L15.5674 6.57781ZM10 14.8438C9.27598 14.8438 8.56822 14.6183 7.96622 14.196C7.36421 13.7736 6.89501 13.1733 6.61794 12.4709C6.34087 11.7686 6.26838 10.9957 6.40963 10.2501C6.55088 9.50451 6.89952 8.81962 7.41148 8.28206C7.92344 7.7445 8.57572 7.37842 9.28583 7.23011C9.99594 7.08179 10.732 7.15791 11.4009 7.44884C12.0698 7.73976 12.6415 8.23243 13.0438 8.86453C13.446 9.49663 13.6607 10.2398 13.6607 11C13.6613 11.5049 13.567 12.005 13.3833 12.4717C13.1995 12.9383 12.9299 13.3623 12.5898 13.7193C12.2498 14.0764 11.846 14.3595 11.4016 14.5524C10.9572 14.7454 10.4809 14.8444 10 14.8438ZM13.8116 7.89219C13.6426 7.89228 13.4773 7.83974 13.3368 7.74121C13.1962 7.64268 13.0866 7.5026 13.0219 7.33866C12.9571 7.17473 12.9401 6.99432 12.9731 6.82026C13.006 6.64619 13.0873 6.48628 13.2068 6.36076C13.3263 6.23524 13.4785 6.14974 13.6443 6.11509C13.8101 6.08043 13.9819 6.09817 14.138 6.16606C14.2942 6.23395 14.4277 6.34895 14.5216 6.4965C14.6155 6.64405 14.6656 6.81753 14.6656 6.995C14.6661 7.11285 14.6444 7.22964 14.6018 7.33866C14.5592 7.44769 14.4965 7.54681 14.4173 7.63034C14.3381 7.71387 14.244 7.78016 14.1404 7.82542C14.0368 7.87067 13.9256 7.894 13.8134 7.89406L13.8116 7.89219ZM17.8571 0.5H2.14286C1.57454 0.5 1.02949 0.737053 0.627628 1.15901C0.225765 1.58097 0 2.15326 0 2.75L0 19.25C0 19.8467 0.225765 20.419 0.627628 20.841C1.02949 21.2629 1.57454 21.5 2.14286 21.5H17.8571C18.4255 21.5 18.9705 21.2629 19.3724 20.841C19.7742 20.419 20 19.8467 20 19.25V2.75C20 2.15326 19.7742 1.58097 19.3724 1.15901C18.9705 0.737053 18.4255 0.5 17.8571 0.5ZM17.0929 14.0938C17.0353 15.2952 16.7741 16.3597 15.9388 17.2344C15.1036 18.1091 14.0906 18.3889 12.9478 18.4461C11.7688 18.5159 8.23393 18.5159 7.05491 18.4461C5.91071 18.3856 4.90045 18.1109 4.06384 17.2344C3.22723 16.3578 2.96429 15.2928 2.90982 14.0938C2.8433 12.8553 2.8433 9.14328 2.90982 7.90625C2.96741 6.70484 3.22545 5.64031 4.06384 4.76562C4.90223 3.89094 5.91518 3.61438 7.05491 3.55719C8.23393 3.48734 11.7688 3.48734 12.9478 3.55719C14.092 3.61766 15.1054 3.89234 15.9388 4.76891C16.7723 5.64547 17.0384 6.71047 17.0929 7.91187C17.1594 9.14563 17.1594 12.8544 17.0929 14.0938Z" fill="white"/>
</svg>
