<svg width="20" height="22" viewBox="0 0 20 22" fill="none" xmlns="http://www.w3.org/2000/svg">
<path d="M18.5714 0.5H1.42411C0.638393 0.5 0 1.17969 0 2.01406V19.9859C0 20.8203 0.638393 21.5 1.42411 21.5H18.5714C19.3571 21.5 20 20.8203 20 19.9859V2.01406C20 1.17969 19.3571 0.5 18.5714 0.5ZM6.04464 18.5H3.08036V8.47812H6.04911V18.5H6.04464ZM4.5625 7.10938C3.61161 7.10938 2.84375 6.29844 2.84375 5.30469C2.84375 4.31094 3.61161 3.5 4.5625 3.5C5.50893 3.5 6.28125 4.31094 6.28125 5.30469C6.28125 6.30312 5.51339 7.10938 4.5625 7.10938ZM17.1562 18.5H14.192V13.625C14.192 12.4625 14.1696 10.9672 12.6518 10.9672C11.1071 10.9672 10.8705 12.2328 10.8705 13.5406V18.5H7.90625V8.47812H10.75V9.84687H10.7902C11.1875 9.05937 12.1563 8.22969 13.5982 8.22969C16.5982 8.22969 17.1562 10.3062 17.1562 13.0062V18.5Z" fill="white"/>
</svg>
