<?xml version="1.0" encoding="utf-8"?>
<!-- Generator: Adobe Illustrator 27.0.1, SVG Export Plug-In . SVG Version: 6.00 Build 0)  -->
<svg version="1.1" id="Camada_1" xmlns="http://www.w3.org/2000/svg" xmlns:xlink="http://www.w3.org/1999/xlink" x="0px" y="0px"
	 viewBox="0 0 170 50" style="enable-background:new 0 0 170 50;" xml:space="preserve">
<style type="text/css">
	.st0{fill:#9E9E9E;}
	.st1{fill:#FF968C;}
	.st2{fill:url(#SVGID_1_);}
	.st3{fill:#005A7F;}
</style>
<g>
	<g>
		<path class="st0" d="M51.1,48.1l0.4-1c0.7,0.5,1.5,0.8,2.4,0.8c0.4,0,0.8-0.1,1-0.2s0.3-0.4,0.3-0.6c0-0.2-0.1-0.4-0.2-0.6
			c-0.2-0.1-0.4-0.2-0.8-0.3l-1.1-0.2c-0.6-0.1-1-0.3-1.3-0.7c-0.3-0.3-0.5-0.7-0.5-1.2c0-0.6,0.2-1.1,0.7-1.5
			c0.5-0.4,1.1-0.6,1.9-0.6c0.5,0,0.9,0.1,1.3,0.2c0.4,0.2,0.8,0.4,1.1,0.6l-0.4,1c-0.7-0.5-1.3-0.8-2-0.8c-0.4,0-0.7,0.1-1,0.2
			c-0.2,0.2-0.3,0.4-0.3,0.7c0,0.2,0.1,0.4,0.2,0.5c0.2,0.1,0.4,0.2,0.7,0.3l1.1,0.3c0.7,0.2,1.1,0.4,1.4,0.7
			c0.3,0.3,0.5,0.7,0.5,1.2c0,0.6-0.2,1.1-0.7,1.4c-0.5,0.3-1.1,0.5-2,0.5C52.7,49,51.8,48.7,51.1,48.1z"/>
		<path class="st0" d="M62.8,42.8c0.4,0.4,0.7,1.1,0.7,2v4.1h-1.3v-1.1c-0.2,0.4-0.4,0.7-0.8,0.9C61,48.8,60.6,49,60.2,49
			c-0.4,0-0.8-0.1-1.2-0.3c-0.4-0.2-0.7-0.4-0.8-0.7c-0.2-0.3-0.3-0.7-0.3-1.1c0-0.5,0.1-0.8,0.4-1.1c0.2-0.3,0.7-0.5,1.2-0.6
			c0.6-0.1,1.4-0.2,2.4-0.2h0.3v-0.4c0-0.5-0.1-0.9-0.3-1.1c-0.2-0.2-0.6-0.3-1-0.3c-0.8,0-1.5,0.2-2.3,0.7l-0.4-1
			c0.3-0.2,0.8-0.4,1.3-0.6c0.5-0.2,1-0.2,1.4-0.2C61.7,42.1,62.3,42.3,62.8,42.8z M61.6,47.4c0.3-0.3,0.5-0.8,0.5-1.3v-0.3h-0.2
			c-0.7,0-1.2,0-1.6,0.1c-0.4,0-0.7,0.2-0.8,0.3c-0.2,0.2-0.2,0.4-0.2,0.7c0,0.3,0.1,0.6,0.3,0.8c0.2,0.2,0.5,0.3,0.9,0.3
			C60.9,48,61.3,47.8,61.6,47.4z"/>
		<path class="st0" d="M71.1,42.3v6.6h-1.3v-1.1c-0.2,0.4-0.5,0.7-0.9,0.9S68.1,49,67.7,49c-1.6,0-2.4-0.9-2.4-2.6v-4.1h1.4v4
			c0,0.5,0.1,0.9,0.3,1.2c0.2,0.3,0.5,0.4,1,0.4c0.5,0,1-0.2,1.3-0.5c0.3-0.3,0.5-0.8,0.5-1.4v-3.7H71.1L71.1,42.3z M68.6,41.4h-0.9
			l1.3-2.8h1.5L68.6,41.4z"/>
		<path class="st0" d="M79.1,39.3v9.6h-1.3v-1.1c-0.2,0.4-0.5,0.7-0.9,0.9S76.1,49,75.6,49c-0.6,0-1.1-0.2-1.5-0.4
			c-0.4-0.3-0.8-0.7-1-1.2c-0.2-0.5-0.4-1.1-0.4-1.8c0-0.7,0.1-1.3,0.4-1.8c0.2-0.5,0.6-0.9,1-1.2c0.5-0.3,1-0.4,1.5-0.4
			c0.5,0,0.9,0.1,1.3,0.3s0.7,0.5,0.9,0.9v-4L79.1,39.3L79.1,39.3z M77.3,47.3c0.3-0.4,0.5-1,0.5-1.7s-0.2-1.3-0.5-1.7
			c-0.3-0.4-0.8-0.6-1.4-0.6c-0.6,0-1.1,0.2-1.4,0.6c-0.3,0.4-0.5,1-0.5,1.7c0,0.7,0.2,1.3,0.5,1.7c0.3,0.4,0.8,0.6,1.4,0.6
			C76.5,47.9,76.9,47.7,77.3,47.3z"/>
		<path class="st0" d="M86.7,45.8H82c0.1,1.4,0.8,2.1,2.1,2.1c0.8,0,1.5-0.2,2.1-0.7l0.4,1c-0.3,0.3-0.7,0.5-1.1,0.6
			C85,48.9,84.5,49,84.1,49c-1.1,0-1.9-0.3-2.5-0.9c-0.6-0.6-0.9-1.4-0.9-2.5c0-0.7,0.1-1.3,0.4-1.8c0.3-0.5,0.7-0.9,1.1-1.2
			c0.5-0.3,1-0.4,1.6-0.4c0.9,0,1.6,0.3,2.1,0.9c0.5,0.6,0.8,1.4,0.8,2.4V45.8L86.7,45.8z M82.6,43.6c-0.3,0.3-0.5,0.8-0.6,1.4h3.5
			c0-0.6-0.2-1.1-0.5-1.4c-0.3-0.3-0.7-0.5-1.2-0.5C83.3,43.1,82.9,43.3,82.6,43.6z"/>
		<path class="st0" d="M98.6,48.9l-1.1-1.1c-0.4,0.4-0.8,0.7-1.3,0.9s-1,0.3-1.6,0.3c-0.6,0-1.2-0.1-1.6-0.3s-0.8-0.5-1.1-0.9
			c-0.3-0.4-0.4-0.8-0.4-1.3c0-0.6,0.2-1.1,0.5-1.6c0.3-0.5,0.9-0.9,1.6-1.3c-0.4-0.4-0.7-0.8-0.8-1.1c-0.2-0.3-0.2-0.7-0.2-1
			c0-0.7,0.2-1.2,0.7-1.6c0.5-0.4,1-0.6,1.8-0.6c0.7,0,1.2,0.2,1.6,0.5s0.6,0.8,0.6,1.5c0,0.5-0.2,0.9-0.4,1.3
			c-0.3,0.4-0.8,0.8-1.5,1.2l2.1,2.2c0.4-0.8,0.6-1.7,0.6-2.8h1.2c0,1.4-0.4,2.6-1,3.6l2,2.1L98.6,48.9L98.6,48.9z M96.8,46.9
			l-2.5-2.6c-0.5,0.3-0.9,0.7-1.2,1c-0.2,0.3-0.3,0.7-0.3,1.1c0,0.5,0.2,0.8,0.5,1.1c0.3,0.3,0.8,0.4,1.4,0.4
			C95.5,47.9,96.2,47.6,96.8,46.9z M94.1,40.5c-0.2,0.2-0.3,0.5-0.3,0.8c0,0.2,0.1,0.5,0.2,0.7c0.1,0.2,0.3,0.5,0.7,0.9
			c0.5-0.3,0.9-0.6,1.1-0.9c0.2-0.3,0.3-0.5,0.3-0.8c0-0.3-0.1-0.6-0.3-0.8c-0.2-0.2-0.5-0.3-0.8-0.3C94.6,40.2,94.3,40.3,94.1,40.5
			z"/>
		<path class="st0" d="M109.5,42.5c0.4,0.3,0.8,0.7,1,1.2c0.3,0.5,0.4,1.1,0.4,1.8c0,0.7-0.1,1.3-0.4,1.8c-0.2,0.5-0.6,0.9-1,1.2
			c-0.4,0.3-1,0.4-1.5,0.4c-0.5,0-0.9-0.1-1.3-0.3c-0.4-0.2-0.7-0.5-0.9-0.9v1.1h-1.4v-9.6h1.4v4c0.2-0.4,0.5-0.7,0.9-0.9
			c0.4-0.2,0.8-0.3,1.3-0.3C108.5,42.1,109.1,42.2,109.5,42.5z M109,47.3c0.3-0.4,0.5-1,0.5-1.7c0-0.7-0.2-1.3-0.5-1.7
			c-0.3-0.4-0.8-0.6-1.4-0.6s-1.1,0.2-1.4,0.6c-0.3,0.4-0.5,1-0.5,1.7c0,0.8,0.2,1.3,0.5,1.7c0.3,0.4,0.8,0.6,1.4,0.6
			C108.2,47.9,108.7,47.7,109,47.3z"/>
		<path class="st0" d="M118.1,45.8h-4.7c0.1,1.4,0.8,2.1,2.1,2.1c0.8,0,1.5-0.2,2.1-0.7l0.4,1c-0.3,0.3-0.7,0.5-1.1,0.6
			s-0.9,0.2-1.4,0.2c-1.1,0-1.9-0.3-2.5-0.9c-0.6-0.6-0.9-1.4-0.9-2.5c0-0.7,0.1-1.3,0.4-1.8c0.3-0.5,0.7-0.9,1.1-1.2
			c0.5-0.3,1-0.4,1.6-0.4c0.9,0,1.6,0.3,2.1,0.9c0.5,0.6,0.8,1.4,0.8,2.4L118.1,45.8L118.1,45.8z M114,43.6
			c-0.3,0.3-0.5,0.8-0.6,1.4h3.5c0-0.6-0.2-1.1-0.5-1.4c-0.3-0.3-0.7-0.5-1.2-0.5C114.7,43.1,114.3,43.3,114,43.6z"/>
		<path class="st0" d="M129.4,44.8v4.1H128v-4.1c0-0.6-0.1-1-0.3-1.2c-0.2-0.3-0.5-0.4-0.9-0.4c-0.5,0-0.9,0.2-1.2,0.5
			c-0.3,0.3-0.4,0.8-0.4,1.4v3.7h-1.4v-4.1c0-0.6-0.1-1-0.3-1.2c-0.2-0.3-0.5-0.4-0.9-0.4c-0.5,0-0.9,0.2-1.2,0.5
			c-0.3,0.3-0.4,0.8-0.4,1.4v3.7h-1.4v-6.6h1.3v1c0.2-0.4,0.5-0.7,0.8-0.9s0.8-0.3,1.2-0.3c1,0,1.7,0.4,2,1.3
			c0.2-0.4,0.5-0.7,0.9-0.9c0.4-0.2,0.8-0.3,1.3-0.3C128.7,42.1,129.4,43,129.4,44.8z"/>
		<path class="st0" d="M131.3,45.8v-1.1h3.9v1.1H131.3z"/>
		<path class="st0" d="M143,45.8h-4.7c0.1,1.4,0.8,2.1,2.1,2.1c0.8,0,1.5-0.2,2.1-0.7l0.4,1c-0.3,0.3-0.7,0.5-1.1,0.6
			c-0.4,0.2-0.9,0.2-1.4,0.2c-1.1,0-1.9-0.3-2.5-0.9c-0.6-0.6-0.9-1.4-0.9-2.5c0-0.7,0.1-1.3,0.4-1.8c0.3-0.5,0.7-0.9,1.1-1.2
			c0.5-0.3,1-0.4,1.6-0.4c0.9,0,1.6,0.3,2.1,0.9c0.5,0.6,0.8,1.4,0.8,2.4L143,45.8L143,45.8z M138.9,43.6c-0.3,0.3-0.5,0.8-0.6,1.4
			h3.5c0-0.6-0.2-1.1-0.5-1.4c-0.3-0.3-0.7-0.5-1.2-0.5C139.6,43.1,139.2,43.3,138.9,43.6z"/>
		<path class="st0" d="M144,48.1l0.4-1c0.7,0.5,1.5,0.8,2.4,0.8c0.4,0,0.8-0.1,1-0.2s0.3-0.4,0.3-0.6c0-0.2-0.1-0.4-0.2-0.6
			c-0.2-0.1-0.4-0.2-0.8-0.3l-1.1-0.2c-0.6-0.1-1-0.3-1.3-0.7c-0.3-0.3-0.5-0.7-0.5-1.2c0-0.6,0.2-1.1,0.7-1.5
			c0.5-0.4,1.1-0.6,1.9-0.6c0.5,0,0.9,0.1,1.3,0.2c0.4,0.2,0.8,0.4,1.1,0.6l-0.4,1c-0.7-0.5-1.3-0.8-2-0.8c-0.4,0-0.7,0.1-1,0.2
			c-0.2,0.2-0.4,0.4-0.4,0.7c0,0.2,0.1,0.4,0.2,0.5c0.2,0.1,0.4,0.2,0.7,0.3l1.1,0.3c0.7,0.2,1.1,0.4,1.4,0.7
			c0.3,0.3,0.5,0.7,0.5,1.2c0,0.6-0.2,1.1-0.7,1.4s-1.1,0.5-2,0.5C145.6,49,144.7,48.7,144,48.1z"/>
		<path class="st0" d="M154.7,47.9l-0.1,1c-0.2,0-0.5,0-0.7,0c-0.9,0-1.5-0.2-1.9-0.6c-0.4-0.4-0.6-1-0.6-1.8v-3.2h-1.3v-1.1h1.3v-2
			h1.4v2h1.8v1.1h-1.8v3.1c0,1,0.5,1.5,1.3,1.5C154.3,47.9,154.5,47.9,154.7,47.9z"/>
		<path class="st0" d="M160.5,42.8c0.4,0.4,0.7,1.1,0.7,2v4.1h-1.3v-1.1c-0.2,0.4-0.4,0.7-0.8,0.9c-0.3,0.2-0.7,0.3-1.2,0.3
			c-0.4,0-0.8-0.1-1.2-0.3c-0.4-0.2-0.7-0.4-0.8-0.7c-0.2-0.3-0.3-0.7-0.3-1.1c0-0.5,0.1-0.8,0.4-1.1c0.2-0.3,0.7-0.5,1.2-0.6
			c0.6-0.1,1.4-0.2,2.4-0.2h0.3v-0.4c0-0.5-0.1-0.9-0.3-1.1c-0.2-0.2-0.6-0.3-1-0.3c-0.8,0-1.5,0.2-2.3,0.7l-0.4-1
			c0.3-0.2,0.8-0.4,1.3-0.6c0.5-0.2,1-0.2,1.5-0.2C159.4,42.1,160,42.3,160.5,42.8z M159.3,47.4c0.3-0.3,0.5-0.8,0.5-1.3v-0.3h-0.2
			c-0.7,0-1.2,0-1.6,0.1c-0.4,0-0.7,0.2-0.8,0.3s-0.2,0.4-0.2,0.7c0,0.3,0.1,0.6,0.3,0.8c0.2,0.2,0.5,0.3,0.9,0.3
			C158.6,48,159,47.8,159.3,47.4z"/>
		<path class="st0" d="M167,43.2l-0.8,0.1c-0.7,0.1-1.1,0.3-1.4,0.6c-0.3,0.3-0.4,0.8-0.4,1.3v3.7h-1.4v-6.6h1.3v1.2
			c0.3-0.8,1.1-1.2,2.1-1.3l0.5,0L167,43.2z"/>
	</g>
	<g>
		<path class="st1" d="M32.8,27.1l5.2-5.2c2.8-2.8,4.8-6.1,4.8-9.8c0-2.6-1-4.5-1.5-5.3c-0.3-0.5-2.9-4.9-8.1-5.6
			c-3.1-0.4-5.5,0.7-6.2,1.1c-1.9,1-3,2.3-3.6,3c-0.6-0.8-2-2.5-4.5-3.5c-0.7-0.3-2-0.8-3.8-0.8c-3.9,0-7.6,2.3-9.5,5.4
			c-0.4,0.7-1.3,2.2-1.4,4.3c0,0.5,0,2.5,1.1,4.4c1.6,2.9,4.9,4.3,8.2,5.2c4.7,1.3,6.5,2.1,6.5,4c0,1.2-0.8,2.6-4.3,2.6
			c-3.5,0-5.5-1.8-6.6-4.4L3,26.1c0.6,1.6,1.5,3,2.7,4.2c0.2,0.2,0.9,0.9,2.1,1.6c2.9,1.8,6.1,2,7.8,2c9.2,0,18.4,0,27.7,0V27
			L32.8,27.1L32.8,27.1z M31.1,19.6c-1.1,1-2.4,2.3-3.9,3.8c-0.4-6-5.5-7.6-10.1-8.9c-2.9-0.9-5-1.4-5.5-3c-0.2-0.6-0.1-1.4,0.2-2
			c0.6-1.1,1.7-1.5,2.3-1.7c2.2-0.7,5.8,0.8,9.2,3.9l0,0c0.2-0.2,0.6-0.5,1-0.8c1.1-0.8,4.9-3.7,8.5-2.7c0.5,0.2,1.6,0.5,2.3,1.4
			c0.7,1,0.6,2.2,0.5,2.7C35.3,15.6,32.2,18.5,31.1,19.6z"/>
		
			<linearGradient id="SVGID_1_" gradientUnits="userSpaceOnUse" x1="17.9711" y1="-281.8688" x2="34.851" y2="-277.6985" gradientTransform="matrix(1 0 0 1 0 302.6144)">
			<stop  offset="0" style="stop-color:#000000"/>
			<stop  offset="0.1448" style="stop-color:#040404;stop-opacity:0.8552"/>
			<stop  offset="0.2729" style="stop-color:#0E0E0E;stop-opacity:0.7271"/>
			<stop  offset="0.3948" style="stop-color:#202020;stop-opacity:0.6052"/>
			<stop  offset="0.5128" style="stop-color:#3A3A3A;stop-opacity:0.4872"/>
			<stop  offset="0.6282" style="stop-color:#5B5B5B;stop-opacity:0.3718"/>
			<stop  offset="0.7414" style="stop-color:#838383;stop-opacity:0.2586"/>
			<stop  offset="0.853" style="stop-color:#B3B3B3;stop-opacity:0.147"/>
			<stop  offset="0.9606" style="stop-color:#E9E9E9;stop-opacity:3.940000e-02"/>
			<stop  offset="1" style="stop-color:#FFFFFF;stop-opacity:0"/>
		</linearGradient>
		<path class="st2" d="M37.9,21.8c1-1,1.9-2,2.6-3.1c-1.6-2.5-3.2-4.9-4.8-7.4c0,0.4,0,0.9-0.1,1.5c-0.1,0.6-0.3,1.1-0.5,1.5
			c-0.2,0.4-0.3,0.8-0.6,1.2c-0.2,0.4-0.5,0.8-0.7,1.1c-0.2,0.2-0.3,0.5-0.5,0.7c-0.2,0.2-0.4,0.5-0.6,0.7c-0.2,0.3-0.5,0.5-0.7,0.8
			c-0.1,0.1-0.3,0.3-0.5,0.5c-0.1,0.1-0.3,0.3-0.4,0.3c-1.1,1-2.4,2.3-3.9,3.8c0,0.3,0,0.5,0,0.8c0,0,0,2.5-1.3,4.9
			c-1.3,2.3-5.2,4.8-10.4,4.8c3.5,0,7,0,10.4,0h17.2v-6.9H32.8L37.9,21.8z"/>
	</g>
	<g>
		<path class="st3" d="M77.6,17.2c1,1.2,1.5,3.1,1.5,5.7v11.3h-4.7V23c0-1.4-0.2-2.4-0.7-3.1c-0.5-0.6-1.2-1-2.3-1
			c-1.3,0-2.2,0.4-2.9,1.3c-0.7,0.8-1,2-1,3.6v10.2h-4.7V23c0-1.4-0.2-2.4-0.7-3.1c-0.5-0.7-1.2-1-2.3-1c-1.2,0-2.2,0.4-2.9,1.3
			c-0.7,0.8-1,2-1,3.6v10.2h-4.7V15.8h4.5v2.6c0.5-1,1.3-1.8,2.3-2.3c1-0.5,2.1-0.8,3.3-0.8c2.8,0,4.6,1.2,5.5,3.5
			c0.6-1.1,1.4-1.9,2.5-2.5c1.1-0.6,2.3-0.9,3.6-0.9C75,15.3,76.5,15.9,77.6,17.2z"/>
		<path class="st3" d="M99.2,25.8H86.7c0.2,1.7,0.7,3,1.5,3.8c0.9,0.8,2.1,1.2,3.8,1.2c2,0,3.9-0.7,5.6-2l1.4,3.2
			c-0.8,0.7-1.9,1.3-3.2,1.7c-1.3,0.4-2.6,0.6-3.9,0.6c-3,0-5.4-0.8-7.1-2.6c-1.7-1.7-2.6-4-2.6-7c0-1.9,0.4-3.5,1.1-5
			c0.8-1.5,1.8-2.6,3.2-3.4c1.4-0.8,2.9-1.2,4.6-1.2c2.5,0,4.5,0.8,6,2.4c1.5,1.6,2.2,3.9,2.2,6.7L99.2,25.8L99.2,25.8z M88.1,19.8
			c-0.8,0.8-1.2,2-1.4,3.5h8.5c0-1.5-0.4-2.7-1.1-3.5s-1.7-1.2-2.9-1.2C89.9,18.6,88.9,19,88.1,19.8z"/>
		<path class="st3" d="M121.6,5.4v28.7h-4.8v-3c-0.6,1-1.4,1.8-2.5,2.4c-1.1,0.6-2.3,0.9-3.7,0.9c-1.6,0-3.1-0.4-4.4-1.2
			s-2.3-1.9-3-3.4c-0.7-1.5-1.1-3.1-1.1-5s0.4-3.6,1.1-5c0.7-1.4,1.7-2.5,3-3.3c1.3-0.8,2.7-1.2,4.4-1.2c1.4,0,2.6,0.3,3.7,0.8
			c1.1,0.5,1.9,1.3,2.5,2.3v-13L121.6,5.4L121.6,5.4z M115.5,29.2c0.8-1,1.3-2.5,1.3-4.4s-0.4-3.4-1.3-4.4c-0.8-1-2-1.5-3.6-1.5
			c-1.6,0-2.8,0.5-3.6,1.5c-0.9,1-1.3,2.4-1.3,4.3c0,1.9,0.4,3.4,1.3,4.4c0.8,1,2.1,1.6,3.6,1.6C113.5,30.8,114.6,30.2,115.5,29.2z"
			/>
		<g>
			<rect x="125.6" y="15.7" class="st3" width="4.7" height="18.3"/>
			<circle class="st3" cx="127.9" cy="9.4" r="3"/>
		</g>
		<path class="st3" d="M137.6,33.2c-1.4-0.8-2.5-1.9-3.3-3.3c-0.8-1.4-1.1-3.1-1.1-5s0.4-3.6,1.2-5c0.8-1.5,1.9-2.6,3.4-3.4
			c1.5-0.8,3.1-1.2,5-1.2c1.3,0,2.6,0.2,3.8,0.6c1.2,0.4,2.2,1,3,1.7l-1.3,3.3c-0.8-0.6-1.6-1.1-2.5-1.4S144,19,143.2,19
			c-1.6,0-2.9,0.5-3.8,1.5c-0.9,1-1.3,2.5-1.3,4.4c0,1.9,0.5,3.3,1.3,4.3c0.9,1,2.2,1.5,3.8,1.5c0.8,0,1.7-0.2,2.6-0.5
			c0.9-0.3,1.7-0.8,2.5-1.4l1.3,3.3c-0.8,0.7-1.8,1.3-3.1,1.7c-1.3,0.4-2.6,0.6-3.9,0.6C140.7,34.4,139,34,137.6,33.2z"/>
		<path class="st3" d="M165.1,17.2c1.3,1.3,1.9,3.2,1.9,5.8v11.1h-4.5v-2.8c-0.4,1-1.1,1.7-2,2.3c-0.9,0.5-2,0.8-3.2,0.8
			c-1.2,0-2.3-0.2-3.3-0.8c-1-0.5-1.8-1.2-2.4-2.1c-0.6-0.9-0.9-1.8-0.9-2.9c0-1.3,0.3-2.4,1-3.2c0.7-0.8,1.8-1.3,3.4-1.7
			c1.5-0.3,3.7-0.5,6.4-0.5h0.9v-0.9c0-1.3-0.3-2.1-0.8-2.7c-0.5-0.5-1.4-0.8-2.7-0.8c-1,0-2,0.2-3.1,0.5c-1.1,0.3-2.1,0.8-3.1,1.4
			l-1.3-3.2c1-0.7,2.3-1.2,3.7-1.6c1.5-0.4,2.8-0.6,4.1-0.6C161.9,15.3,163.9,15.9,165.1,17.2z M161.3,29.8c0.8-0.8,1.2-1.9,1.2-3.3
			v-0.8h-0.7c-1.7,0-3,0.1-3.9,0.2c-0.9,0.2-1.6,0.4-2,0.8c-0.4,0.4-0.6,0.9-0.6,1.5c0,0.8,0.3,1.5,0.8,2s1.3,0.8,2.1,0.8
			C159.5,31,160.6,30.6,161.3,29.8z"/>
	</g>
</g>
</svg>
